<?xml version="1.0" encoding="UTF-8" standalone="no"?>
<!DOCTYPE svg PUBLIC "-//W3C//DTD SVG 1.1//EN" "http://www.w3.org/Graphics/SVG/1.1/DTD/svg11.dtd">
<svg version="1.1" xmlns="http://www.w3.org/2000/svg" xmlns:xlink="http://www.w3.org/1999/xlink" preserveAspectRatio="xMidYMid meet" viewBox="141.08529473177032 98.00629700703377 134.95880256891786 131.30678133210574" width="130.96" height="127.31"><defs><path d="M256.53 212.68L245.71 223.99L148.71 131.23L159.53 119.92L256.53 212.68Z" id="acFeJCAng"></path><path d="M145.34 122.6L148.53 131.06L153.94 125.4L159.35 119.74L150.75 116.94L142.16 114.13L145.34 122.6Z" id="h1SsmEfYxt"></path><path d="M143.7 118.31L145.31 122.56L148.01 119.73L150.72 116.9L146.4 115.48L142.09 114.06L143.7 118.31Z" id="a62Cn8KgQ6"></path><path d="M227.27 112.56L256.53 135.81L258.62 133.18L273.04 144.64L260.43 160.51L246.01 149.05L248.1 146.42L238.79 139.01L169.4 226.31L159.54 218.48L228.93 131.18L218.21 122.66L220.61 119.65L217.96 122.46L213.74 110.46L208.02 103.94L210.22 99.01L227.27 112.56L227.27 112.56Z" id="aP4DF6sWr"></path></defs><g><g><use xlink:href="#acFeJCAng" opacity="1" fill="#000000" fill-opacity="1"></use><g><use xlink:href="#acFeJCAng" opacity="1" fill-opacity="0" stroke="#000000" stroke-width="1" stroke-opacity="1"></use></g></g><g><use xlink:href="#h1SsmEfYxt" opacity="1" fill="#ffffff" fill-opacity="1"></use><g><use xlink:href="#h1SsmEfYxt" opacity="1" fill-opacity="0" stroke="#000000" stroke-width="1" stroke-opacity="1"></use></g></g><g><use xlink:href="#a62Cn8KgQ6" opacity="1" fill="#000000" fill-opacity="1"></use></g><g><use xlink:href="#aP4DF6sWr" opacity="1" fill="#000000" fill-opacity="1"></use><g><use xlink:href="#aP4DF6sWr" opacity="1" fill-opacity="0" stroke="#000000" stroke-width="1" stroke-opacity="1"></use></g></g></g></svg>