<?xml version="1.0" encoding="UTF-8" standalone="no"?>
<!DOCTYPE svg PUBLIC "-//W3C//DTD SVG 1.1//EN" "http://www.w3.org/Graphics/SVG/1.1/DTD/svg11.dtd">
<svg version="1.1" xmlns="http://www.w3.org/2000/svg" xmlns:xlink="http://www.w3.org/1999/xlink" preserveAspectRatio="xMidYMid meet" viewBox="84.12099541700815 2.0881711835937438 261.73049645390086 365.2765957446808" width="257.73" height="361.28"><defs><path d="M228.86 36.96L114.86 36.96L114.86 330.5L313.11 330.5L313.11 115.99L342.85 115.99L342.85 364.36L85.12 364.36L85.12 3.09L228.86 3.09L228.86 36.96ZM248.68 96.35L248.68 3.09L342.85 96.35L248.68 96.35Z" id="b3ilQjY5Zj"></path><path d="M170.36 151.21C170.36 151.4 170.36 151.56 170.36 151.56C170.36 151.56 170.36 151.4 170.36 151.21C170.36 151.01 170.36 150.85 170.36 150.85C170.36 150.92 170.36 151.01 170.36 151.21Z" id="c2Lgb7WNA"></path><path d="M192.06 121.21C192.06 137.76 178.62 151.21 162.06 151.21C145.5 151.21 132.06 137.76 132.06 121.21C132.06 104.65 145.5 91.21 162.06 91.21C178.62 91.21 192.06 104.65 192.06 121.21Z" id="a1WPa9j9Ni"></path><path d="M204.4 170.18L286.69 170.18L286.69 173.73L204.4 173.73L204.4 170.18Z" id="b210xmI0gB"></path><path d="M204.4 180.18L286.69 180.18L286.69 183.73L204.4 183.73L204.4 180.18Z" id="g2r3gsX65U"></path><path d="M204.4 190.18L286.69 190.18L286.69 193.73L204.4 193.73L204.4 190.18Z" id="c1eRL9kyFW"></path><path d="M204.4 200.18L286.69 200.18L286.69 203.73L204.4 203.73L204.4 200.18Z" id="dhPyZbw3J"></path><path d="M204.4 210.18L286.69 210.18L286.69 213.73L204.4 213.73L204.4 210.18Z" id="d8APqnqb6"></path><path d="M204.4 220.18L286.69 220.18L286.69 223.73L204.4 223.73L204.4 220.18Z" id="bE7eEKVpW"></path><path d="M204.4 230.18L286.69 230.18L286.69 233.73L204.4 233.73L204.4 230.18Z" id="bhWmYR85E"></path><path d="M204.4 240.44L286.69 240.44L286.69 243.99L204.4 243.99L204.4 240.44Z" id="a3u2ADUGqS"></path><path d="M204.4 250.18L286.69 250.18L286.69 253.73L204.4 253.73L204.4 250.18Z" id="f3pUiw1EtC"></path><path d="M204.4 260.18L286.69 260.18L286.69 263.73L204.4 263.73L204.4 260.18Z" id="e2TtCPUPgK"></path><path d="M139.67 166.92L184.45 166.92L184.45 170.73L139.67 170.73L139.67 166.92Z" id="mYc77PEdz"></path><path d="M139.67 177.68L184.45 177.68L184.45 181.49L139.67 181.49L139.67 177.68Z" id="b6NnEWNl9T"></path><path d="M139.67 188.43L184.45 188.43L184.45 192.25L139.67 192.25L139.67 188.43Z" id="d1HmDJCfke"></path><path d="M139.67 199.19L184.45 199.19L184.45 203L139.67 203L139.67 199.19Z" id="d1n9IdVDPO"></path><path d="M139.67 209.94L184.45 209.94L184.45 213.76L139.67 213.76L139.67 209.94Z" id="ak9hAbugL"></path><path d="M139.67 220.7L184.45 220.7L184.45 224.52L139.67 224.52L139.67 220.7Z" id="f3dqxhIGu"></path><path d="M139.67 231.46L184.45 231.46L184.45 235.27L139.67 235.27L139.67 231.46Z" id="d35Jl08FLr"></path><path d="M139.67 242.21L184.45 242.21L184.45 246.03L139.67 246.03L139.67 242.21Z" id="g12fA8BDQ0"></path><path d="M139.67 252.97L184.45 252.97L184.45 256.78L139.67 256.78L139.67 252.97Z" id="hElIk1hq6"></path><path d="M139.67 263.73L184.45 263.73L184.45 267.54L139.67 267.54L139.67 263.73Z" id="dqfHfgOrH"></path><path d="M204.4 127.89L283.91 127.89L283.91 144.16L204.4 144.16L204.4 127.89Z" id="biqiZgY6X"></path></defs><g><g><use xlink:href="#b3ilQjY5Zj" opacity="1" fill="#000000" fill-opacity="1"></use></g><g><use xlink:href="#c2Lgb7WNA" opacity="1" fill="#23362a" fill-opacity="1"></use></g><g><use xlink:href="#a1WPa9j9Ni" opacity="1" fill="#000000" fill-opacity="1"></use></g><g><use xlink:href="#b210xmI0gB" opacity="1" fill="#000000" fill-opacity="1"></use></g><g><use xlink:href="#g2r3gsX65U" opacity="1" fill="#000000" fill-opacity="1"></use></g><g><use xlink:href="#c1eRL9kyFW" opacity="1" fill="#000000" fill-opacity="1"></use></g><g><use xlink:href="#dhPyZbw3J" opacity="1" fill="#000000" fill-opacity="1"></use></g><g><use xlink:href="#d8APqnqb6" opacity="1" fill="#000000" fill-opacity="1"></use></g><g><use xlink:href="#bE7eEKVpW" opacity="1" fill="#000000" fill-opacity="1"></use></g><g><use xlink:href="#bhWmYR85E" opacity="1" fill="#000000" fill-opacity="1"></use></g><g><use xlink:href="#a3u2ADUGqS" opacity="1" fill="#000000" fill-opacity="1"></use></g><g><use xlink:href="#f3pUiw1EtC" opacity="1" fill="#000000" fill-opacity="1"></use></g><g><use xlink:href="#e2TtCPUPgK" opacity="1" fill="#000000" fill-opacity="1"></use></g><g><use xlink:href="#mYc77PEdz" opacity="1" fill="#000000" fill-opacity="1"></use></g><g><use xlink:href="#b6NnEWNl9T" opacity="1" fill="#000000" fill-opacity="1"></use></g><g><use xlink:href="#d1HmDJCfke" opacity="1" fill="#000000" fill-opacity="1"></use></g><g><use xlink:href="#d1n9IdVDPO" opacity="1" fill="#000000" fill-opacity="1"></use></g><g><use xlink:href="#ak9hAbugL" opacity="1" fill="#000000" fill-opacity="1"></use></g><g><use xlink:href="#f3dqxhIGu" opacity="1" fill="#000000" fill-opacity="1"></use></g><g><use xlink:href="#d35Jl08FLr" opacity="1" fill="#000000" fill-opacity="1"></use></g><g><use xlink:href="#g12fA8BDQ0" opacity="1" fill="#000000" fill-opacity="1"></use></g><g><use xlink:href="#hElIk1hq6" opacity="1" fill="#000000" fill-opacity="1"></use></g><g><use xlink:href="#dqfHfgOrH" opacity="1" fill="#000000" fill-opacity="1"></use></g><g><use xlink:href="#biqiZgY6X" opacity="1" fill="#0a2313" fill-opacity="1"></use></g></g></svg>